<svg width="48" height="48" viewBox="0 0 48 48" fill="none" xmlns="http://www.w3.org/2000/svg">
<path d="M6 33H38C39.0609 33 40.0783 32.5786 40.8284 31.8284C41.5786 31.0783 42 30.0609 42 29V7M28 13H18M28 13C28 5.358 18 5.37 18 13M28 13H34C34.5304 13 35.0391 13.2107 35.4142 13.5858C35.7893 13.9609 36 14.4696 36 15V25C36 25.5304 35.7893 26.0391 35.4142 26.4142C35.0391 26.7893 34.5304 27 34 27H12C11.4696 27 10.9609 26.7893 10.5858 26.4142C10.2107 26.0391 10 25.5304 10 25V15C10 14.4696 10.2107 13.9609 10.5858 13.5858C10.9609 13.2107 11.4696 13 12 13H18M10 37C10 38.0609 10.4214 39.0783 11.1716 39.8284C11.9217 40.5786 12.9391 41 14 41C15.0609 41 16.0783 40.5786 16.8284 39.8284C17.5786 39.0783 18 38.0609 18 37C18 35.9391 17.5786 34.9217 16.8284 34.1716C16.0783 33.4214 15.0609 33 14 33C12.9391 33 11.9217 33.4214 11.1716 34.1716C10.4214 34.9217 10 35.9391 10 37ZM28 37C28 38.0609 28.4214 39.0783 29.1716 39.8284C29.9217 40.5786 30.9391 41 32 41C33.0609 41 34.0783 40.5786 34.8284 39.8284C35.5786 39.0783 36 38.0609 36 37C36 35.9391 35.5786 34.9217 34.8284 34.1716C34.0783 33.4214 33.0609 33 32 33C30.9391 33 29.9217 33.4214 29.1716 34.1716C28.4214 34.9217 28 35.9391 28 37Z" stroke="black" stroke-width="1.5" stroke-linecap="round" stroke-linejoin="round"/>
</svg>
